<svg width="35" height="32" viewBox="0 0 35 32" fill="none" xmlns="http://www.w3.org/2000/svg">
<path fill-rule="evenodd" clip-rule="evenodd" d="M30.1556 0.920181H4.8444C2.16891 0.920181 0 3.15798 0 5.91845V27.0017C0 29.7622 2.16891 32 4.8444 32H30.1556C32.8311 32 35 29.7622 35 27.0017V5.91845C35 3.15798 32.8311 0.920181 30.1556 0.920181ZM19.7031 16.9871C20.9589 16.2146 21.8002 14.7992 21.8002 13.181C21.8002 10.7355 19.8787 8.75304 17.5085 8.75304C15.1383 8.75304 13.2168 10.7355 13.2168 13.181C13.2168 14.7992 14.058 16.2146 15.3139 16.9871V22.5737C15.3139 23.4445 15.998 24.1504 16.842 24.1504H18.175C19.0189 24.1504 19.7031 23.4445 19.7031 22.5737V16.9871Z" fill="white"/>
</svg>
