<?xml version="1.0" encoding="UTF-8"?>
<svg id="_레이어_1" data-name="레이어 1" xmlns="http://www.w3.org/2000/svg" viewBox="0 0 55.54 56">
  <defs>
    <style>
      .cls-1 {
        stroke-width: 0px;
      }
    </style>
  </defs>
  <path class="cls-1" d="m55.14,27.92c-.26,1.07-.57,2.06-.93,2.97-.56,1.44-1.23,2.93-2.02,4.49-.79,1.56-1.69,3.07-2.68,4.55-1,1.48-2.06,2.82-3.19,4.02-1.13,1.2-2.29,2.15-3.47,2.86-1.19.7-2.38,1.05-3.58,1.05-1.67,0-2.96-.49-3.87-1.47-.91-.98-1.38-2.37-1.41-4.16-1,1.61-2.09,2.96-3.28,4.05-1.19,1.08-2.49,1.63-3.89,1.63s-2.58-.4-3.34-1.21c-.76-.81-1.14-1.93-1.14-3.36,0-1.73.26-3.46.77-5.19.51-1.73,1.14-3.41,1.89-5.04.75-1.63,1.49-3.15,2.24-4.57.75-1.42,1.36-2.68,1.83-3.76.26-.62.4-1.16.4-1.63,0-.62-.25-.92-.75-.92-.35,0-.86.24-1.54.72-.67.48-1.32,1.16-1.93,2.05-1.32,1.85-2.33,3.58-3.03,5.19-.7,1.61-1.06,2.96-1.06,4.05,0,.5.09.92.26,1.28.06.09.09.22.09.4,0,.23-.13.35-.4.35s-.59-.14-.97-.44c-.47-.38-.81-.85-1.03-1.41-.22-.56-.33-1.19-.33-1.89,0-.97.18-1.99.55-3.08s.86-2.15,1.47-3.19c.62-1.04,1.32-1.96,2.11-2.75.94-.94,1.97-1.69,3.1-2.24,1.13-.56,2.06-.84,2.79-.84,1.82,0,3.22.37,4.2,1.1.98.73,1.47,1.63,1.47,2.68,0,.35-.07.75-.22,1.19-.44,1.29-1.03,2.76-1.78,4.42-.75,1.66-1.51,3.36-2.29,5.12-.78,1.76-1.44,3.46-1.98,5.1-.54,1.64-.81,3.09-.81,4.35,0,.47.07.84.2,1.12.13.28.34.42.64.42.62,0,1.32-.5,2.11-1.52.79-1.01,1.64-2.37,2.55-4.07.91-1.7,1.85-3.58,2.81-5.63.76-2.14,1.49-3.99,2.18-5.56.69-1.57,1.22-2.64,1.61-3.23.53-.76.98-1.27,1.36-1.52.38-.25.81-.38,1.3-.4.48-.01,1.11-.02,1.87-.02.79-.06,1.42-.02,1.89.11.47.13.63.29.48.46-1.03,1.35-2,2.93-2.92,4.75-.92,1.82-1.74,3.68-2.46,5.59-.72,1.91-1.28,3.68-1.69,5.32-.41,1.64-.62,2.98-.62,4,0,1.23.29,1.85.88,1.85.7,0,1.47-.43,2.29-1.3.82-.86,1.65-1.99,2.48-3.39.84-1.39,1.63-2.88,2.4-4.46.26-.56.62-1.42,1.05-2.59.44-1.17.89-2.46,1.36-3.87.47-1.41.86-2.77,1.16-4.09.31-1.32.46-2.4.46-3.26,0-1-.25-1.49-.75-1.49-.24,0-.35-.09-.35-.26,0-.09.06-.19.18-.31.12-.12.28-.19.48-.22.5-.12,1.01-.18,1.54-.18,1.38,0,2.33.41,2.86,1.23.08.12.13.25.2.37C52.29,9.54,41.03,0,27.54,0c-5.56,0-10.73,1.63-15.09,4.42.48-.04,1-.08,1.55-.11,1.14-.07,2.32-.1,3.54-.1,1.36,0,2.66.07,3.9.2,1.24.14,2.25.38,3.03.74s1.17.86,1.17,1.5c0,.2-.02.43-.05.66-.04.24-.04.44,0,.61,0,.14-.04.21-.1.23s-.13,0-.2-.08c-.1-.2-.49-.35-1.17-.43-.68-.08-1.51-.13-2.5-.13-.27,1.02-.61,2.2-1.02,3.54-.41,1.34-.86,2.73-1.35,4.18-.49,1.44-.98,2.82-1.45,4.13-.47,1.31-.92,2.45-1.32,3.44-.64,1.56-1.39,3.14-2.24,4.71-.85,1.58-1.83,3.02-2.95,4.33-1.12,1.31-2.44,2.35-3.95,3.13-1.51.78-3.29,1.17-5.32,1.17-.46,0-.89-.04-1.28-.11,3.46,11.54,14.15,19.95,26.82,19.95,15.46,0,28-12.54,28-28,0-.67-.03-1.32-.08-1.98-.06.62-.16,1.24-.32,1.9Z"/>
  <path class="cls-1" d="m2.61,20.15c1.12-.92,2.36-1.54,3.72-1.88.47-.1.88-.15,1.22-.15.47,0,.85.06,1.12.18.27.12.41.27.41.43s-.14.31-.41.41c-1.43.64-2.85,1.94-4.28,3.87-1.43,1.94-2.53,4.3-3.31,7.08-.21.71-.31,1.37-.31,1.99,0,.71.13,1.28.41,1.71.27.43.64.64,1.12.64.58,0,1.25-.35,2.01-1.04s1.59-1.86,2.47-3.49c.78-1.43,1.57-3.07,2.37-4.94.8-1.87,1.56-3.83,2.29-5.89.73-2.05,1.38-4.05,1.96-5.99.58-1.94,1.02-3.67,1.32-5.2l-.36.05c-.85.14-1.67.25-2.47.33-.8.08-1.54.19-2.22.33-.68.13-1.28.26-1.78.38-.5.12-.89.21-1.16.28C3.34,13.02.95,17.74,0,22.95c.76-1.05,1.63-1.99,2.61-2.79Z"/>
</svg>