<svg id="Layer_1" data-name="Layer 1" xmlns="http://www.w3.org/2000/svg" viewBox="0 0 388 2433.34"><defs><style>.cls-1{fill:#f8f8f8;}</style></defs><path class="cls-1" d="M1441.48,1482V1321.37c0-84.48,53.2-139.76,132.46-139.76,80.84,0,131.42,56.84,131.42,142.89v58.41h113.69V1482Zm186.7-137.68c0-37.55-20.86-58.93-54.24-58.93-32.85,0-53.19,21.38-53.19,58.93v38.59h107.43Z" transform="translate(-1436.27 951.34)"/><path class="cls-1" d="M1441.48,1142.5V981.87c0-84.48,48-139.76,127.77-139.76,52.15,0,89.18,24,108.48,64.67l141.32-77.19v108l-125.68,66.75v39.11h125.68v99.09Zm174.19-137.68c0-37.55-13.56-58.93-46.42-58.93-33.37,0-48.5,21.38-48.5,58.93v38.59h94.92Z" transform="translate(-1436.27 951.34)"/><path class="cls-1" d="M1824.27,616.82c0,103.26-68.84,183-194,183-125.68,0-194-79.79-194-183,0-102.21,68.32-182.53,194-182.53S1824.27,514.61,1824.27,616.82Zm-301.43,0c0,52.15,38.07,80.83,107.43,80.83S1737.7,669,1737.7,616.82c0-51.63-38.07-80.31-107.43-80.31S1522.84,565.19,1522.84,616.82Z" transform="translate(-1436.27 951.34)"/><path class="cls-1" d="M1441.48,132.86h259.19c74.06.52,123.6,58.41,123.6,141.33,0,72-36,130.9-121.51,130.38V305.48c28.68-1,43.81-14.6,43.81-37.55,0-24-15.65-36.5-45.9-37H1441.48Z" transform="translate(-1436.27 951.34)"/><path class="cls-1" d="M1441.48,82.28V-187.34h80.31V-16.81h68.32V-173.26h80.31V-16.81h68.32v-170h80.31V82.28Z" transform="translate(-1436.27 951.34)"/><path class="cls-1" d="M1522.84-421c0,52.16,40.16,81.88,107.43,81.88,70.92,0,107.43-30.25,107.43-81.35,0-38.07-20.86-62.58-54.24-67.8l1-100.65c64.67,5.22,139.77,62.06,139.77,170.53,0,103.78-68.84,181.49-194,181.49-125.68,0-194-79.79-194-181.49,0-93.87,52.67-162.18,145.5-170.53v100.65C1546.31-485.12,1522.84-461.13,1522.84-421Z" transform="translate(-1436.27 951.34)"/><path class="cls-1" d="M1441.48-625.93V-951.34h80.31v113.68h297.26v98H1521.79v113.68Z" transform="translate(-1436.27 951.34)"/></svg>