<svg id="Layer_1" data-name="Layer 1" xmlns="http://www.w3.org/2000/svg" viewBox="0 0 387.98 1331.35"><defs><style>.cls-1{fill:#f8f8f8;}</style></defs><path class="cls-1" d="M3113-425.51V-315l-236.23,53.2v3.12L3113-196.58V-109L2875.72-46.39v3.13L3113,9.93V120.48L2735.44,9.41V-86l215.9-65.19v-3.13l-215.9-65.18v-94.91Z" transform="translate(-2730.23 425.51)"/><path class="cls-1" d="M3113,154.38v99.08H2964.38V392.7H3113v99.6H2735.44V392.7h148.63V253.46H2735.44V154.38Z" transform="translate(-2730.23 425.51)"/><path class="cls-1" d="M2730.23,723.32c0-103.25,68.84-183,194-183,125.68,0,194,79.79,194,183,0,102.21-68.31,182.52-194,182.52S2730.23,825.53,2730.23,723.32Zm301.42,0c0-52.15-38.07-80.83-107.43-80.83s-107.42,28.68-107.42,80.83c0,51.63,38.06,80.31,107.42,80.31S3031.65,775,3031.65,723.32Z" transform="translate(-2730.23 425.51)"/></svg>